<mxfile host="65bd71144e">
    <diagram id="Sl4bmoaojOTxbsfLrf4K" name="Page-1">
        <mxGraphModel dx="6740" dy="4853" grid="1" gridSize="10" guides="1" tooltips="1" connect="1" arrows="1" fold="1" page="1" pageScale="1" pageWidth="850" pageHeight="1100" math="0" shadow="0">
            <root>
                <mxCell id="0"/>
                <mxCell id="1" parent="0"/>
                <mxCell id="28" value="" style="rounded=0;whiteSpace=wrap;html=1;" vertex="1" parent="1">
                    <mxGeometry x="-1110" y="-280" width="5800" height="1590" as="geometry"/>
                </mxCell>
                <mxCell id="2" value="Incoming image" style="rounded=0;whiteSpace=wrap;html=1;" parent="1" vertex="1">
                    <mxGeometry x="-310" y="145" width="120" height="60" as="geometry"/>
                </mxCell>
                <mxCell id="3" value="Is image size ok?" style="rhombus;whiteSpace=wrap;html=1;" parent="1" vertex="1">
                    <mxGeometry x="-330" y="275" width="160" height="80" as="geometry"/>
                </mxCell>
                <mxCell id="4" value="" style="endArrow=classic;html=1;rounded=0;endFill=1;edgeStyle=orthogonalEdgeStyle;" parent="1" source="3" target="8" edge="1">
                    <mxGeometry width="50" height="50" relative="1" as="geometry">
                        <mxPoint x="-220" y="325" as="sourcePoint"/>
                        <mxPoint x="-400" y="415" as="targetPoint"/>
                    </mxGeometry>
                </mxCell>
                <mxCell id="5" value="NO" style="edgeLabel;html=1;align=center;verticalAlign=middle;resizable=0;points=[];" parent="4" vertex="1" connectable="0">
                    <mxGeometry x="-0.4495" y="-1" relative="1" as="geometry">
                        <mxPoint x="17" y="-9" as="offset"/>
                    </mxGeometry>
                </mxCell>
                <mxCell id="6" value="" style="endArrow=classic;html=1;rounded=0;endFill=1;edgeStyle=orthogonalEdgeStyle;" parent="1" source="3" target="15" edge="1">
                    <mxGeometry width="50" height="50" relative="1" as="geometry">
                        <mxPoint x="-170" y="385" as="sourcePoint"/>
                        <mxPoint x="-100" y="415" as="targetPoint"/>
                    </mxGeometry>
                </mxCell>
                <mxCell id="7" value="YES" style="edgeLabel;html=1;align=center;verticalAlign=middle;resizable=0;points=[];" parent="6" vertex="1" connectable="0">
                    <mxGeometry x="-0.4468" relative="1" as="geometry">
                        <mxPoint x="-17" y="-10" as="offset"/>
                    </mxGeometry>
                </mxCell>
                <mxCell id="8" value="Is image too small?" style="rhombus;whiteSpace=wrap;html=1;" parent="1" vertex="1">
                    <mxGeometry x="-500" y="385" width="160" height="80" as="geometry"/>
                </mxCell>
                <mxCell id="9" value="Rescale image" style="rounded=0;whiteSpace=wrap;html=1;" parent="1" vertex="1">
                    <mxGeometry x="-330" y="485" width="120" height="60" as="geometry"/>
                </mxCell>
                <mxCell id="10" value="Reject image" style="rounded=0;whiteSpace=wrap;html=1;" parent="1" vertex="1">
                    <mxGeometry x="-480" y="545" width="120" height="60" as="geometry"/>
                </mxCell>
                <mxCell id="11" value="" style="endArrow=classic;html=1;rounded=0;endFill=1;edgeStyle=orthogonalEdgeStyle;" parent="1" source="8" target="9" edge="1">
                    <mxGeometry width="50" height="50" relative="1" as="geometry">
                        <mxPoint x="-500" y="395" as="sourcePoint"/>
                        <mxPoint x="-150" y="425" as="targetPoint"/>
                    </mxGeometry>
                </mxCell>
                <mxCell id="12" value="NO" style="edgeLabel;html=1;align=center;verticalAlign=middle;resizable=0;points=[];" parent="11" vertex="1" connectable="0">
                    <mxGeometry x="-0.4495" y="-1" relative="1" as="geometry">
                        <mxPoint x="-16" y="-11" as="offset"/>
                    </mxGeometry>
                </mxCell>
                <mxCell id="13" value="" style="endArrow=classic;html=1;rounded=0;endFill=1;edgeStyle=orthogonalEdgeStyle;" parent="1" source="8" target="10" edge="1">
                    <mxGeometry width="50" height="50" relative="1" as="geometry">
                        <mxPoint x="-310" y="335" as="sourcePoint"/>
                        <mxPoint x="-400" y="425" as="targetPoint"/>
                    </mxGeometry>
                </mxCell>
                <mxCell id="14" value="YES" style="edgeLabel;html=1;align=center;verticalAlign=middle;resizable=0;points=[];" parent="13" vertex="1" connectable="0">
                    <mxGeometry x="-0.4495" y="-1" relative="1" as="geometry">
                        <mxPoint x="-1" y="-9" as="offset"/>
                    </mxGeometry>
                </mxCell>
                <mxCell id="15" value="" style="rhombus;whiteSpace=wrap;html=1;" parent="1" vertex="1">
                    <mxGeometry x="-110" y="492.5" width="50" height="45" as="geometry"/>
                </mxCell>
                <mxCell id="16" value="" style="endArrow=classic;html=1;rounded=0;endFill=1;edgeStyle=orthogonalEdgeStyle;" parent="1" source="9" target="15" edge="1">
                    <mxGeometry width="50" height="50" relative="1" as="geometry">
                        <mxPoint x="-530" y="615" as="sourcePoint"/>
                        <mxPoint x="-410" y="905" as="targetPoint"/>
                    </mxGeometry>
                </mxCell>
                <mxCell id="17" value="" style="ellipse;html=1;shape=endState;fillColor=#000000;strokeColor=#ff0000;" parent="1" vertex="1">
                    <mxGeometry x="-435" y="715" width="30" height="30" as="geometry"/>
                </mxCell>
                <mxCell id="18" value="" style="endArrow=classic;html=1;rounded=0;endFill=1;edgeStyle=orthogonalEdgeStyle;" parent="1" source="10" target="17" edge="1">
                    <mxGeometry width="50" height="50" relative="1" as="geometry">
                        <mxPoint x="-120" y="605" as="sourcePoint"/>
                        <mxPoint x="-40" y="605" as="targetPoint"/>
                    </mxGeometry>
                </mxCell>
                <mxCell id="19" value="" style="endArrow=classic;html=1;rounded=0;endFill=1;edgeStyle=orthogonalEdgeStyle;" parent="1" source="2" target="3" edge="1">
                    <mxGeometry width="50" height="50" relative="1" as="geometry">
                        <mxPoint x="-190" y="485" as="sourcePoint"/>
                        <mxPoint x="-190" y="565" as="targetPoint"/>
                    </mxGeometry>
                </mxCell>
                <mxCell id="20" value="" style="ellipse;html=1;shape=startState;fillColor=#000000;strokeColor=#ff0000;" parent="1" vertex="1">
                    <mxGeometry x="-265" y="55" width="30" height="30" as="geometry"/>
                </mxCell>
                <mxCell id="21" value="" style="edgeStyle=orthogonalEdgeStyle;html=1;verticalAlign=bottom;endArrow=open;endSize=8;strokeColor=#ff0000;rounded=0;" parent="1" source="20" target="2" edge="1">
                    <mxGeometry relative="1" as="geometry">
                        <mxPoint x="-125" y="285" as="targetPoint"/>
                    </mxGeometry>
                </mxCell>
                <mxCell id="vfNR-cBWzIuKzGbf1niG-26" style="edgeStyle=none;html=1;" parent="1" source="vfNR-cBWzIuKzGbf1niG-22" target="vfNR-cBWzIuKzGbf1niG-25" edge="1">
                    <mxGeometry relative="1" as="geometry"/>
                </mxCell>
                <mxCell id="vfNR-cBWzIuKzGbf1niG-22" value="Requesting image" style="rounded=0;whiteSpace=wrap;html=1;" parent="1" vertex="1">
                    <mxGeometry x="910" y="130" width="120" height="60" as="geometry"/>
                </mxCell>
                <mxCell id="vfNR-cBWzIuKzGbf1niG-23" value="" style="ellipse;html=1;shape=startState;fillColor=#000000;strokeColor=#ff0000;" parent="1" vertex="1">
                    <mxGeometry x="955" y="40" width="30" height="30" as="geometry"/>
                </mxCell>
                <mxCell id="vfNR-cBWzIuKzGbf1niG-24" value="" style="edgeStyle=orthogonalEdgeStyle;html=1;verticalAlign=bottom;endArrow=open;endSize=8;strokeColor=#ff0000;rounded=0;" parent="1" source="vfNR-cBWzIuKzGbf1niG-23" target="vfNR-cBWzIuKzGbf1niG-22" edge="1">
                    <mxGeometry relative="1" as="geometry">
                        <mxPoint x="1095" y="270" as="targetPoint"/>
                    </mxGeometry>
                </mxCell>
                <mxCell id="vfNR-cBWzIuKzGbf1niG-27" value="YES" style="edgeStyle=orthogonalEdgeStyle;html=1;rounded=0;curved=0;fillColor=#f8cecc;strokeColor=#000000;" parent="1" source="vfNR-cBWzIuKzGbf1niG-25" target="3cYTme-PiB04GSGghVVn-24" edge="1">
                    <mxGeometry x="-0.4286" y="-10" relative="1" as="geometry">
                        <mxPoint as="offset"/>
                    </mxGeometry>
                </mxCell>
                <mxCell id="vfNR-cBWzIuKzGbf1niG-28" value="NO" style="edgeStyle=orthogonalEdgeStyle;html=1;rounded=0;fillColor=#f8cecc;strokeColor=#000000;" parent="1" source="vfNR-cBWzIuKzGbf1niG-25" target="3cYTme-PiB04GSGghVVn-23" edge="1">
                    <mxGeometry x="-0.3333" y="20" relative="1" as="geometry">
                        <mxPoint as="offset"/>
                    </mxGeometry>
                </mxCell>
                <mxCell id="vfNR-cBWzIuKzGbf1niG-25" value="Does image exist?" style="rhombus;whiteSpace=wrap;html=1;fillColor=#FFFFFF;strokeColor=#000000;" parent="1" vertex="1">
                    <mxGeometry x="890" y="240" width="160" height="80" as="geometry"/>
                </mxCell>
                <mxCell id="3cYTme-PiB04GSGghVVn-35" style="edgeStyle=orthogonalEdgeStyle;shape=connector;rounded=0;html=1;strokeColor=default;align=center;verticalAlign=middle;fontFamily=Helvetica;fontSize=11;fontColor=default;labelBackgroundColor=default;endArrow=classic;" parent="1" source="3cYTme-PiB04GSGghVVn-21" target="3cYTme-PiB04GSGghVVn-34" edge="1">
                    <mxGeometry relative="1" as="geometry"/>
                </mxCell>
                <mxCell id="3cYTme-PiB04GSGghVVn-21" value="Add to database" style="rounded=0;whiteSpace=wrap;html=1;" parent="1" vertex="1">
                    <mxGeometry x="-235" y="780" width="120" height="60" as="geometry"/>
                </mxCell>
                <mxCell id="vfNR-cBWzIuKzGbf1niG-95" style="edgeStyle=orthogonalEdgeStyle;shape=connector;rounded=1;html=1;entryX=1;entryY=0.5;entryDx=0;entryDy=0;strokeColor=#000000;align=center;verticalAlign=middle;fontFamily=Helvetica;fontSize=11;fontColor=default;labelBackgroundColor=default;endArrow=classic;fillColor=#f8cecc;exitX=0.5;exitY=1;exitDx=0;exitDy=0;" parent="1" source="3cYTme-PiB04GSGghVVn-23" target="vfNR-cBWzIuKzGbf1niG-89" edge="1">
                    <mxGeometry relative="1" as="geometry">
                        <Array as="points">
                            <mxPoint x="1120" y="440"/>
                        </Array>
                    </mxGeometry>
                </mxCell>
                <mxCell id="3cYTme-PiB04GSGghVVn-23" value="Pick placeholder image" style="rounded=0;whiteSpace=wrap;html=1;fillColor=#FFFFFF;strokeColor=#000000;" parent="1" vertex="1">
                    <mxGeometry x="1060" y="340" width="120" height="60" as="geometry"/>
                </mxCell>
                <mxCell id="vfNR-cBWzIuKzGbf1niG-96" style="edgeStyle=orthogonalEdgeStyle;shape=connector;rounded=1;html=1;entryX=0;entryY=0.5;entryDx=0;entryDy=0;strokeColor=#000000;align=center;verticalAlign=middle;fontFamily=Helvetica;fontSize=11;fontColor=default;labelBackgroundColor=default;endArrow=classic;fillColor=#f8cecc;" parent="1" source="3cYTme-PiB04GSGghVVn-24" target="vfNR-cBWzIuKzGbf1niG-89" edge="1">
                    <mxGeometry relative="1" as="geometry">
                        <Array as="points">
                            <mxPoint x="810" y="440"/>
                        </Array>
                    </mxGeometry>
                </mxCell>
                <mxCell id="3cYTme-PiB04GSGghVVn-24" value="Pick image" style="rounded=0;whiteSpace=wrap;html=1;fillColor=#FFFFFF;strokeColor=#000000;" parent="1" vertex="1">
                    <mxGeometry x="750" y="340" width="120" height="60" as="geometry"/>
                </mxCell>
                <mxCell id="3cYTme-PiB04GSGghVVn-32" value="" style="ellipse;html=1;shape=endState;fillColor=#000000;strokeColor=#ff0000;fontFamily=Helvetica;fontSize=11;fontColor=default;labelBackgroundColor=default;" parent="1" vertex="1">
                    <mxGeometry x="955" y="545" width="30" height="30" as="geometry"/>
                </mxCell>
                <mxCell id="3cYTme-PiB04GSGghVVn-34" value="" style="ellipse;html=1;shape=endState;fillColor=#000000;strokeColor=#ff0000;" parent="1" vertex="1">
                    <mxGeometry x="-190" y="910" width="30" height="30" as="geometry"/>
                </mxCell>
                <mxCell id="3cYTme-PiB04GSGghVVn-36" value="" style="ellipse;html=1;shape=startState;fillColor=#000000;strokeColor=#ff0000;fontFamily=Helvetica;fontSize=11;fontColor=default;labelBackgroundColor=default;" parent="1" vertex="1">
                    <mxGeometry x="2135" y="60" width="30" height="30" as="geometry"/>
                </mxCell>
                <mxCell id="3cYTme-PiB04GSGghVVn-37" value="" style="edgeStyle=orthogonalEdgeStyle;html=1;verticalAlign=bottom;endArrow=open;endSize=8;strokeColor=#ff0000;rounded=0;align=center;fontFamily=Helvetica;fontSize=11;fontColor=default;labelBackgroundColor=default;" parent="1" source="3cYTme-PiB04GSGghVVn-36" target="3cYTme-PiB04GSGghVVn-38" edge="1">
                    <mxGeometry relative="1" as="geometry">
                        <mxPoint x="2150" y="150" as="targetPoint"/>
                    </mxGeometry>
                </mxCell>
                <mxCell id="3cYTme-PiB04GSGghVVn-66" style="edgeStyle=orthogonalEdgeStyle;shape=connector;rounded=0;html=1;strokeColor=default;align=center;verticalAlign=middle;fontFamily=Helvetica;fontSize=11;fontColor=default;labelBackgroundColor=default;endArrow=classic;" parent="1" source="3cYTme-PiB04GSGghVVn-38" target="3cYTme-PiB04GSGghVVn-51" edge="1">
                    <mxGeometry relative="1" as="geometry"/>
                </mxCell>
                <mxCell id="3cYTme-PiB04GSGghVVn-38" value="Replace image" style="rounded=0;whiteSpace=wrap;html=1;fontFamily=Helvetica;fontSize=11;fontColor=default;labelBackgroundColor=default;" parent="1" vertex="1">
                    <mxGeometry x="2090" y="130" width="120" height="60" as="geometry"/>
                </mxCell>
                <mxCell id="3cYTme-PiB04GSGghVVn-40" value="YES" style="edgeStyle=orthogonalEdgeStyle;html=1;rounded=0;curved=0;" parent="1" source="3cYTme-PiB04GSGghVVn-42" target="3cYTme-PiB04GSGghVVn-44" edge="1">
                    <mxGeometry x="-0.4286" y="-10" relative="1" as="geometry">
                        <mxPoint as="offset"/>
                    </mxGeometry>
                </mxCell>
                <mxCell id="3cYTme-PiB04GSGghVVn-42" value="Does image exist?" style="rhombus;whiteSpace=wrap;html=1;" parent="1" vertex="1">
                    <mxGeometry x="2070" y="430" width="160" height="80" as="geometry"/>
                </mxCell>
                <mxCell id="3cYTme-PiB04GSGghVVn-44" value="Override old image data with new image data" style="rounded=0;whiteSpace=wrap;html=1;" parent="1" vertex="1">
                    <mxGeometry x="1940" y="570" width="120" height="60" as="geometry"/>
                </mxCell>
                <mxCell id="3cYTme-PiB04GSGghVVn-47" value="" style="ellipse;html=1;shape=endState;fillColor=#000000;strokeColor=#ff0000;fontFamily=Helvetica;fontSize=11;fontColor=default;labelBackgroundColor=default;" parent="1" vertex="1">
                    <mxGeometry x="2135" y="820" width="30" height="30" as="geometry"/>
                </mxCell>
                <mxCell id="3cYTme-PiB04GSGghVVn-50" value="YES" style="edgeStyle=none;html=1;endArrow=classic;endFill=1;" parent="1" source="3cYTme-PiB04GSGghVVn-51" target="3cYTme-PiB04GSGghVVn-42" edge="1">
                    <mxGeometry y="-30" relative="1" as="geometry">
                        <mxPoint as="offset"/>
                    </mxGeometry>
                </mxCell>
                <mxCell id="3cYTme-PiB04GSGghVVn-64" style="edgeStyle=orthogonalEdgeStyle;shape=connector;rounded=0;html=1;entryX=0.5;entryY=0;entryDx=0;entryDy=0;strokeColor=default;align=center;verticalAlign=middle;fontFamily=Helvetica;fontSize=11;fontColor=default;labelBackgroundColor=default;endArrow=classic;" parent="1" source="3cYTme-PiB04GSGghVVn-51" target="3cYTme-PiB04GSGghVVn-58" edge="1">
                    <mxGeometry relative="1" as="geometry"/>
                </mxCell>
                <mxCell id="3cYTme-PiB04GSGghVVn-65" value="NO" style="edgeLabel;html=1;align=center;verticalAlign=middle;resizable=0;points=[];fontFamily=Helvetica;fontSize=11;fontColor=default;labelBackgroundColor=default;" parent="3cYTme-PiB04GSGghVVn-64" connectable="0" vertex="1">
                    <mxGeometry x="-0.7328" y="-2" relative="1" as="geometry">
                        <mxPoint x="-13" y="-12" as="offset"/>
                    </mxGeometry>
                </mxCell>
                <mxCell id="3cYTme-PiB04GSGghVVn-51" value="Does user have&amp;nbsp;&lt;div&gt;permissions&lt;/div&gt;" style="rhombus;whiteSpace=wrap;html=1;" parent="1" vertex="1">
                    <mxGeometry x="2070" y="230" width="160" height="80" as="geometry"/>
                </mxCell>
                <mxCell id="3cYTme-PiB04GSGghVVn-55" value="" style="edgeStyle=none;html=1;" parent="1" source="3cYTme-PiB04GSGghVVn-44" target="3cYTme-PiB04GSGghVVn-52" edge="1">
                    <mxGeometry relative="1" as="geometry">
                        <mxPoint x="2060" y="600" as="sourcePoint"/>
                        <mxPoint x="2260" y="600" as="targetPoint"/>
                    </mxGeometry>
                </mxCell>
                <mxCell id="3cYTme-PiB04GSGghVVn-133" style="edgeStyle=orthogonalEdgeStyle;shape=connector;rounded=0;html=1;strokeColor=default;align=center;verticalAlign=middle;fontFamily=Helvetica;fontSize=11;fontColor=default;labelBackgroundColor=default;endArrow=classic;" parent="1" source="3cYTme-PiB04GSGghVVn-52" target="vfNR-cBWzIuKzGbf1niG-69" edge="1">
                    <mxGeometry relative="1" as="geometry"/>
                </mxCell>
                <mxCell id="3cYTme-PiB04GSGghVVn-52" value="Send message &quot;Image was replaced succesfully&quot; to user" style="rounded=0;whiteSpace=wrap;html=1;fontFamily=Helvetica;fontSize=11;fontColor=default;labelBackgroundColor=default;" parent="1" vertex="1">
                    <mxGeometry x="1940" y="695" width="120" height="60" as="geometry"/>
                </mxCell>
                <mxCell id="3cYTme-PiB04GSGghVVn-134" style="edgeStyle=orthogonalEdgeStyle;shape=connector;rounded=0;html=1;strokeColor=default;align=center;verticalAlign=middle;fontFamily=Helvetica;fontSize=11;fontColor=default;labelBackgroundColor=default;endArrow=classic;" parent="1" source="3cYTme-PiB04GSGghVVn-58" target="vfNR-cBWzIuKzGbf1niG-68" edge="1">
                    <mxGeometry relative="1" as="geometry"/>
                </mxCell>
                <mxCell id="3cYTme-PiB04GSGghVVn-58" value="Send message &quot;You do not have permission&quot; to user" style="rounded=0;whiteSpace=wrap;html=1;fontFamily=Helvetica;fontSize=11;fontColor=default;labelBackgroundColor=default;" parent="1" vertex="1">
                    <mxGeometry x="2240" y="695" width="120" height="60" as="geometry"/>
                </mxCell>
                <mxCell id="3cYTme-PiB04GSGghVVn-59" value="" style="edgeStyle=orthogonalEdgeStyle;html=1;rounded=0;" parent="1" source="3cYTme-PiB04GSGghVVn-42" target="3cYTme-PiB04GSGghVVn-57" edge="1">
                    <mxGeometry x="-0.3333" y="20" relative="1" as="geometry">
                        <mxPoint as="offset"/>
                        <mxPoint x="2330" y="520" as="targetPoint"/>
                        <mxPoint x="2230" y="470" as="sourcePoint"/>
                    </mxGeometry>
                </mxCell>
                <mxCell id="3cYTme-PiB04GSGghVVn-61" value="NO" style="edgeLabel;html=1;align=center;verticalAlign=middle;resizable=0;points=[];fontFamily=Helvetica;fontSize=11;fontColor=default;labelBackgroundColor=default;" parent="3cYTme-PiB04GSGghVVn-59" connectable="0" vertex="1">
                    <mxGeometry x="-0.4021" y="2" relative="1" as="geometry">
                        <mxPoint as="offset"/>
                    </mxGeometry>
                </mxCell>
                <mxCell id="vfNR-cBWzIuKzGbf1niG-70" style="edgeStyle=none;html=1;" parent="1" source="3cYTme-PiB04GSGghVVn-57" target="3cYTme-PiB04GSGghVVn-47" edge="1">
                    <mxGeometry relative="1" as="geometry"/>
                </mxCell>
                <mxCell id="3cYTme-PiB04GSGghVVn-57" value="Send message &quot;Image does not exist!&quot; to user" style="rounded=0;whiteSpace=wrap;html=1;fontFamily=Helvetica;fontSize=11;fontColor=default;labelBackgroundColor=default;" parent="1" vertex="1">
                    <mxGeometry x="2090" y="695" width="120" height="60" as="geometry"/>
                </mxCell>
                <mxCell id="3cYTme-PiB04GSGghVVn-115" value="" style="ellipse;html=1;shape=startState;fillColor=#000000;strokeColor=#ff0000;fontFamily=Helvetica;fontSize=11;fontColor=default;labelBackgroundColor=default;" parent="1" vertex="1">
                    <mxGeometry x="2705" y="70" width="30" height="30" as="geometry"/>
                </mxCell>
                <mxCell id="3cYTme-PiB04GSGghVVn-116" value="" style="edgeStyle=orthogonalEdgeStyle;html=1;verticalAlign=bottom;endArrow=open;endSize=8;strokeColor=#ff0000;rounded=0;align=center;fontFamily=Helvetica;fontSize=11;fontColor=default;labelBackgroundColor=default;" parent="1" source="3cYTme-PiB04GSGghVVn-115" target="3cYTme-PiB04GSGghVVn-118" edge="1">
                    <mxGeometry relative="1" as="geometry">
                        <mxPoint x="2720" y="160" as="targetPoint"/>
                    </mxGeometry>
                </mxCell>
                <mxCell id="3cYTme-PiB04GSGghVVn-117" style="edgeStyle=none;html=1;" parent="1" source="3cYTme-PiB04GSGghVVn-118" target="3cYTme-PiB04GSGghVVn-130" edge="1">
                    <mxGeometry relative="1" as="geometry"/>
                </mxCell>
                <mxCell id="3cYTme-PiB04GSGghVVn-118" value="Update image" style="rounded=0;whiteSpace=wrap;html=1;fontFamily=Helvetica;fontSize=11;fontColor=default;labelBackgroundColor=default;" parent="1" vertex="1">
                    <mxGeometry x="2660" y="140" width="120" height="60" as="geometry"/>
                </mxCell>
                <mxCell id="vfNR-cBWzIuKzGbf1niG-78" value="NO" style="edgeStyle=orthogonalEdgeStyle;html=1;" parent="1" source="3cYTme-PiB04GSGghVVn-121" target="vfNR-cBWzIuKzGbf1niG-76" edge="1">
                    <mxGeometry x="-0.7647" y="20" relative="1" as="geometry">
                        <Array as="points">
                            <mxPoint x="2840" y="480"/>
                        </Array>
                        <mxPoint as="offset"/>
                    </mxGeometry>
                </mxCell>
                <mxCell id="vfNR-cBWzIuKzGbf1niG-83" value="YES" style="edgeStyle=orthogonalEdgeStyle;shape=connector;rounded=1;html=1;entryX=0.5;entryY=0;entryDx=0;entryDy=0;strokeColor=default;align=center;verticalAlign=middle;fontFamily=Helvetica;fontSize=11;fontColor=default;labelBackgroundColor=default;endArrow=classic;" parent="1" source="3cYTme-PiB04GSGghVVn-121" target="vfNR-cBWzIuKzGbf1niG-80" edge="1">
                    <mxGeometry x="-0.0909" y="-20" relative="1" as="geometry">
                        <Array as="points">
                            <mxPoint x="2680" y="520"/>
                            <mxPoint x="2680" y="520"/>
                        </Array>
                        <mxPoint as="offset"/>
                    </mxGeometry>
                </mxCell>
                <mxCell id="3cYTme-PiB04GSGghVVn-121" value="Does image exist?" style="rhombus;whiteSpace=wrap;html=1;" parent="1" vertex="1">
                    <mxGeometry x="2640" y="440" width="160" height="80" as="geometry"/>
                </mxCell>
                <mxCell id="3cYTme-PiB04GSGghVVn-129" value="YES" style="edgeStyle=none;html=1;endArrow=classic;endFill=1;" parent="1" source="3cYTme-PiB04GSGghVVn-130" target="3cYTme-PiB04GSGghVVn-121" edge="1">
                    <mxGeometry y="-30" relative="1" as="geometry">
                        <mxPoint as="offset"/>
                    </mxGeometry>
                </mxCell>
                <mxCell id="vfNR-cBWzIuKzGbf1niG-73" value="NO" style="edgeStyle=orthogonalEdgeStyle;html=1;" parent="1" source="3cYTme-PiB04GSGghVVn-130" target="vfNR-cBWzIuKzGbf1niG-72" edge="1">
                    <mxGeometry x="-0.8644" y="20" relative="1" as="geometry">
                        <mxPoint as="offset"/>
                    </mxGeometry>
                </mxCell>
                <mxCell id="3cYTme-PiB04GSGghVVn-130" value="Does user have&amp;nbsp;&lt;div&gt;permissions&lt;/div&gt;" style="rhombus;whiteSpace=wrap;html=1;" parent="1" vertex="1">
                    <mxGeometry x="2640" y="240" width="160" height="80" as="geometry"/>
                </mxCell>
                <mxCell id="vfNR-cBWzIuKzGbf1niG-68" value="" style="ellipse;html=1;shape=endState;fillColor=#000000;strokeColor=#ff0000;fontFamily=Helvetica;fontSize=11;fontColor=default;labelBackgroundColor=default;" parent="1" vertex="1">
                    <mxGeometry x="2285" y="820" width="30" height="30" as="geometry"/>
                </mxCell>
                <mxCell id="vfNR-cBWzIuKzGbf1niG-69" value="" style="ellipse;html=1;shape=endState;fillColor=#000000;strokeColor=#ff0000;fontFamily=Helvetica;fontSize=11;fontColor=default;labelBackgroundColor=default;" parent="1" vertex="1">
                    <mxGeometry x="1985" y="820" width="30" height="30" as="geometry"/>
                </mxCell>
                <mxCell id="3cYTme-PiB04GSGghVVn-135" value="" style="ellipse;html=1;shape=startState;fillColor=#000000;strokeColor=#ff0000;fontFamily=Helvetica;fontSize=11;fontColor=default;labelBackgroundColor=default;" parent="1" vertex="1">
                    <mxGeometry x="1585" y="60" width="30" height="30" as="geometry"/>
                </mxCell>
                <mxCell id="3cYTme-PiB04GSGghVVn-136" value="" style="edgeStyle=orthogonalEdgeStyle;html=1;verticalAlign=bottom;endArrow=open;endSize=8;strokeColor=#ff0000;rounded=0;align=center;fontFamily=Helvetica;fontSize=11;fontColor=default;labelBackgroundColor=default;" parent="1" source="3cYTme-PiB04GSGghVVn-135" target="3cYTme-PiB04GSGghVVn-138" edge="1">
                    <mxGeometry relative="1" as="geometry">
                        <mxPoint x="1600" y="150" as="targetPoint"/>
                    </mxGeometry>
                </mxCell>
                <mxCell id="3cYTme-PiB04GSGghVVn-137" style="edgeStyle=orthogonalEdgeStyle;shape=connector;rounded=0;html=1;strokeColor=default;align=center;verticalAlign=middle;fontFamily=Helvetica;fontSize=11;fontColor=default;labelBackgroundColor=default;endArrow=classic;" parent="1" source="3cYTme-PiB04GSGghVVn-138" target="3cYTme-PiB04GSGghVVn-146" edge="1">
                    <mxGeometry relative="1" as="geometry"/>
                </mxCell>
                <mxCell id="3cYTme-PiB04GSGghVVn-138" value="Delete image" style="rounded=0;whiteSpace=wrap;html=1;fontFamily=Helvetica;fontSize=11;fontColor=default;labelBackgroundColor=default;" parent="1" vertex="1">
                    <mxGeometry x="1540" y="130" width="120" height="60" as="geometry"/>
                </mxCell>
                <mxCell id="3cYTme-PiB04GSGghVVn-139" value="YES" style="edgeStyle=orthogonalEdgeStyle;html=1;rounded=0;curved=0;" parent="1" source="3cYTme-PiB04GSGghVVn-140" target="3cYTme-PiB04GSGghVVn-141" edge="1">
                    <mxGeometry x="-0.4286" y="-10" relative="1" as="geometry">
                        <mxPoint as="offset"/>
                    </mxGeometry>
                </mxCell>
                <mxCell id="3cYTme-PiB04GSGghVVn-140" value="Does image exist?" style="rhombus;whiteSpace=wrap;html=1;" parent="1" vertex="1">
                    <mxGeometry x="1520" y="430" width="160" height="80" as="geometry"/>
                </mxCell>
                <mxCell id="3cYTme-PiB04GSGghVVn-141" value="Delete image" style="rounded=0;whiteSpace=wrap;html=1;" parent="1" vertex="1">
                    <mxGeometry x="1390" y="570" width="120" height="60" as="geometry"/>
                </mxCell>
                <mxCell id="3cYTme-PiB04GSGghVVn-142" value="" style="ellipse;html=1;shape=endState;fillColor=#000000;strokeColor=#ff0000;fontFamily=Helvetica;fontSize=11;fontColor=default;labelBackgroundColor=default;" parent="1" vertex="1">
                    <mxGeometry x="1585" y="820" width="30" height="30" as="geometry"/>
                </mxCell>
                <mxCell id="3cYTme-PiB04GSGghVVn-143" value="YES" style="edgeStyle=none;html=1;endArrow=classic;endFill=1;" parent="1" source="3cYTme-PiB04GSGghVVn-146" target="3cYTme-PiB04GSGghVVn-140" edge="1">
                    <mxGeometry y="-30" relative="1" as="geometry">
                        <mxPoint as="offset"/>
                    </mxGeometry>
                </mxCell>
                <mxCell id="3cYTme-PiB04GSGghVVn-144" style="edgeStyle=orthogonalEdgeStyle;shape=connector;rounded=0;html=1;entryX=0.5;entryY=0;entryDx=0;entryDy=0;strokeColor=default;align=center;verticalAlign=middle;fontFamily=Helvetica;fontSize=11;fontColor=default;labelBackgroundColor=default;endArrow=classic;" parent="1" source="3cYTme-PiB04GSGghVVn-146" target="3cYTme-PiB04GSGghVVn-151" edge="1">
                    <mxGeometry relative="1" as="geometry"/>
                </mxCell>
                <mxCell id="3cYTme-PiB04GSGghVVn-145" value="NO" style="edgeLabel;html=1;align=center;verticalAlign=middle;resizable=0;points=[];fontFamily=Helvetica;fontSize=11;fontColor=default;labelBackgroundColor=default;" parent="3cYTme-PiB04GSGghVVn-144" connectable="0" vertex="1">
                    <mxGeometry x="-0.7328" y="-2" relative="1" as="geometry">
                        <mxPoint x="-13" y="-12" as="offset"/>
                    </mxGeometry>
                </mxCell>
                <mxCell id="3cYTme-PiB04GSGghVVn-146" value="Does user have&amp;nbsp;&lt;div&gt;permissions&lt;/div&gt;" style="rhombus;whiteSpace=wrap;html=1;" parent="1" vertex="1">
                    <mxGeometry x="1520" y="230" width="160" height="80" as="geometry"/>
                </mxCell>
                <mxCell id="3cYTme-PiB04GSGghVVn-147" value="" style="edgeStyle=none;html=1;" parent="1" source="3cYTme-PiB04GSGghVVn-141" target="3cYTme-PiB04GSGghVVn-149" edge="1">
                    <mxGeometry relative="1" as="geometry">
                        <mxPoint x="1510" y="600" as="sourcePoint"/>
                        <mxPoint x="1710" y="600" as="targetPoint"/>
                    </mxGeometry>
                </mxCell>
                <mxCell id="3cYTme-PiB04GSGghVVn-148" style="edgeStyle=orthogonalEdgeStyle;shape=connector;rounded=0;html=1;strokeColor=default;align=center;verticalAlign=middle;fontFamily=Helvetica;fontSize=11;fontColor=default;labelBackgroundColor=default;endArrow=classic;" parent="1" source="3cYTme-PiB04GSGghVVn-149" target="3cYTme-PiB04GSGghVVn-157" edge="1">
                    <mxGeometry relative="1" as="geometry"/>
                </mxCell>
                <mxCell id="3cYTme-PiB04GSGghVVn-149" value="Send message &quot;Image was deleted succesfully&quot; to user" style="rounded=0;whiteSpace=wrap;html=1;fontFamily=Helvetica;fontSize=11;fontColor=default;labelBackgroundColor=default;" parent="1" vertex="1">
                    <mxGeometry x="1390" y="695" width="120" height="60" as="geometry"/>
                </mxCell>
                <mxCell id="3cYTme-PiB04GSGghVVn-150" style="edgeStyle=orthogonalEdgeStyle;shape=connector;rounded=0;html=1;strokeColor=default;align=center;verticalAlign=middle;fontFamily=Helvetica;fontSize=11;fontColor=default;labelBackgroundColor=default;endArrow=classic;" parent="1" source="3cYTme-PiB04GSGghVVn-151" target="3cYTme-PiB04GSGghVVn-156" edge="1">
                    <mxGeometry relative="1" as="geometry"/>
                </mxCell>
                <mxCell id="3cYTme-PiB04GSGghVVn-151" value="Send message &quot;You do not have permission&quot; to user" style="rounded=0;whiteSpace=wrap;html=1;fontFamily=Helvetica;fontSize=11;fontColor=default;labelBackgroundColor=default;" parent="1" vertex="1">
                    <mxGeometry x="1690" y="695" width="120" height="60" as="geometry"/>
                </mxCell>
                <mxCell id="3cYTme-PiB04GSGghVVn-152" value="" style="edgeStyle=orthogonalEdgeStyle;html=1;rounded=0;" parent="1" source="3cYTme-PiB04GSGghVVn-140" target="3cYTme-PiB04GSGghVVn-155" edge="1">
                    <mxGeometry x="-0.3333" y="20" relative="1" as="geometry">
                        <mxPoint as="offset"/>
                        <mxPoint x="1780" y="520" as="targetPoint"/>
                        <mxPoint x="1680" y="470" as="sourcePoint"/>
                    </mxGeometry>
                </mxCell>
                <mxCell id="3cYTme-PiB04GSGghVVn-153" value="NO" style="edgeLabel;html=1;align=center;verticalAlign=middle;resizable=0;points=[];fontFamily=Helvetica;fontSize=11;fontColor=default;labelBackgroundColor=default;" parent="3cYTme-PiB04GSGghVVn-152" connectable="0" vertex="1">
                    <mxGeometry x="-0.4021" y="2" relative="1" as="geometry">
                        <mxPoint as="offset"/>
                    </mxGeometry>
                </mxCell>
                <mxCell id="3cYTme-PiB04GSGghVVn-154" style="edgeStyle=none;html=1;" parent="1" source="3cYTme-PiB04GSGghVVn-155" target="3cYTme-PiB04GSGghVVn-142" edge="1">
                    <mxGeometry relative="1" as="geometry">
                        <mxPoint x="1600" y="795" as="targetPoint"/>
                    </mxGeometry>
                </mxCell>
                <mxCell id="3cYTme-PiB04GSGghVVn-155" value="Send message &quot;Image does not exist!&quot; to user" style="rounded=0;whiteSpace=wrap;html=1;fontFamily=Helvetica;fontSize=11;fontColor=default;labelBackgroundColor=default;" parent="1" vertex="1">
                    <mxGeometry x="1540" y="695" width="120" height="60" as="geometry"/>
                </mxCell>
                <mxCell id="3cYTme-PiB04GSGghVVn-156" value="" style="ellipse;html=1;shape=endState;fillColor=#000000;strokeColor=#ff0000;fontFamily=Helvetica;fontSize=11;fontColor=default;labelBackgroundColor=default;" parent="1" vertex="1">
                    <mxGeometry x="1735" y="820" width="30" height="30" as="geometry"/>
                </mxCell>
                <mxCell id="3cYTme-PiB04GSGghVVn-157" value="" style="ellipse;html=1;shape=endState;fillColor=#000000;strokeColor=#ff0000;fontFamily=Helvetica;fontSize=11;fontColor=default;labelBackgroundColor=default;" parent="1" vertex="1">
                    <mxGeometry x="1435" y="820" width="30" height="30" as="geometry"/>
                </mxCell>
                <mxCell id="vfNR-cBWzIuKzGbf1niG-75" style="edgeStyle=none;html=1;" parent="1" source="vfNR-cBWzIuKzGbf1niG-72" target="vfNR-cBWzIuKzGbf1niG-74" edge="1">
                    <mxGeometry relative="1" as="geometry"/>
                </mxCell>
                <mxCell id="vfNR-cBWzIuKzGbf1niG-72" value="&lt;span style=&quot;color: rgb(0, 0, 0);&quot;&gt;Send message &quot;You do not have permission&quot; to user&lt;/span&gt;" style="rounded=0;whiteSpace=wrap;html=1;fontFamily=Helvetica;fontSize=11;fontColor=default;labelBackgroundColor=default;" parent="1" vertex="1">
                    <mxGeometry x="2930" y="675" width="120" height="60" as="geometry"/>
                </mxCell>
                <mxCell id="vfNR-cBWzIuKzGbf1niG-74" value="" style="ellipse;html=1;shape=endState;fillColor=#000000;strokeColor=#ff0000;fontFamily=Helvetica;fontSize=11;fontColor=default;labelBackgroundColor=default;" parent="1" vertex="1">
                    <mxGeometry x="2975" y="790" width="30" height="30" as="geometry"/>
                </mxCell>
                <mxCell id="vfNR-cBWzIuKzGbf1niG-88" style="edgeStyle=orthogonalEdgeStyle;shape=connector;rounded=1;html=1;strokeColor=default;align=center;verticalAlign=middle;fontFamily=Helvetica;fontSize=11;fontColor=default;labelBackgroundColor=default;endArrow=classic;" parent="1" source="vfNR-cBWzIuKzGbf1niG-76" target="vfNR-cBWzIuKzGbf1niG-84" edge="1">
                    <mxGeometry relative="1" as="geometry"/>
                </mxCell>
                <mxCell id="vfNR-cBWzIuKzGbf1niG-76" value="&lt;span style=&quot;color: rgb(0, 0, 0);&quot;&gt;Send message &quot;Image does not exist!&quot; to user&lt;/span&gt;" style="rounded=0;whiteSpace=wrap;html=1;fontFamily=Helvetica;fontSize=11;fontColor=default;labelBackgroundColor=default;" parent="1" vertex="1">
                    <mxGeometry x="2780" y="675" width="120" height="60" as="geometry"/>
                </mxCell>
                <mxCell id="vfNR-cBWzIuKzGbf1niG-86" style="edgeStyle=orthogonalEdgeStyle;shape=connector;rounded=1;html=1;strokeColor=default;align=center;verticalAlign=middle;fontFamily=Helvetica;fontSize=11;fontColor=default;labelBackgroundColor=default;endArrow=classic;" parent="1" source="vfNR-cBWzIuKzGbf1niG-79" target="vfNR-cBWzIuKzGbf1niG-85" edge="1">
                    <mxGeometry relative="1" as="geometry"/>
                </mxCell>
                <mxCell id="vfNR-cBWzIuKzGbf1niG-79" value="&lt;span style=&quot;color: rgb(0, 0, 0);&quot;&gt;Send message &quot;Image does not exist!&quot; to user&lt;/span&gt;" style="rounded=0;whiteSpace=wrap;html=1;fontFamily=Helvetica;fontSize=11;fontColor=default;labelBackgroundColor=default;" parent="1" vertex="1">
                    <mxGeometry x="2580" y="675" width="120" height="60" as="geometry"/>
                </mxCell>
                <mxCell id="vfNR-cBWzIuKzGbf1niG-81" style="edgeStyle=none;html=1;" parent="1" source="vfNR-cBWzIuKzGbf1niG-80" target="vfNR-cBWzIuKzGbf1niG-79" edge="1">
                    <mxGeometry relative="1" as="geometry"/>
                </mxCell>
                <mxCell id="vfNR-cBWzIuKzGbf1niG-80" value="Update image in database" style="rounded=0;whiteSpace=wrap;html=1;" parent="1" vertex="1">
                    <mxGeometry x="2580" y="570" width="120" height="60" as="geometry"/>
                </mxCell>
                <mxCell id="vfNR-cBWzIuKzGbf1niG-84" value="" style="ellipse;html=1;shape=endState;fillColor=#000000;strokeColor=#ff0000;fontFamily=Helvetica;fontSize=11;fontColor=default;labelBackgroundColor=default;" parent="1" vertex="1">
                    <mxGeometry x="2825" y="790" width="30" height="30" as="geometry"/>
                </mxCell>
                <mxCell id="vfNR-cBWzIuKzGbf1niG-85" value="" style="ellipse;html=1;shape=endState;fillColor=#000000;strokeColor=#ff0000;fontFamily=Helvetica;fontSize=11;fontColor=default;labelBackgroundColor=default;" parent="1" vertex="1">
                    <mxGeometry x="2625" y="790" width="30" height="30" as="geometry"/>
                </mxCell>
                <mxCell id="vfNR-cBWzIuKzGbf1niG-94" style="edgeStyle=orthogonalEdgeStyle;shape=connector;rounded=1;html=1;strokeColor=default;align=center;verticalAlign=middle;fontFamily=Helvetica;fontSize=11;fontColor=default;labelBackgroundColor=default;endArrow=classic;" parent="1" source="vfNR-cBWzIuKzGbf1niG-89" target="3cYTme-PiB04GSGghVVn-32" edge="1">
                    <mxGeometry relative="1" as="geometry"/>
                </mxCell>
                <mxCell id="vfNR-cBWzIuKzGbf1niG-89" value="Send image to user" style="rounded=0;whiteSpace=wrap;html=1;fillColor=#FFFFFF;strokeColor=#000000;" parent="1" vertex="1">
                    <mxGeometry x="910" y="410" width="120" height="60" as="geometry"/>
                </mxCell>
                <mxCell id="vfNR-cBWzIuKzGbf1niG-102" style="edgeStyle=none;html=1;" parent="1" source="vfNR-cBWzIuKzGbf1niG-103" target="vfNR-cBWzIuKzGbf1niG-116" edge="1">
                    <mxGeometry relative="1" as="geometry">
                        <mxPoint x="359.99999999999955" y="240" as="targetPoint"/>
                    </mxGeometry>
                </mxCell>
                <mxCell id="vfNR-cBWzIuKzGbf1niG-103" value="Requesting product assets" style="rounded=0;whiteSpace=wrap;html=1;" parent="1" vertex="1">
                    <mxGeometry x="300" y="130" width="120" height="60" as="geometry"/>
                </mxCell>
                <mxCell id="vfNR-cBWzIuKzGbf1niG-104" value="" style="ellipse;html=1;shape=startState;fillColor=#000000;strokeColor=#ff0000;" parent="1" vertex="1">
                    <mxGeometry x="345" y="40" width="30" height="30" as="geometry"/>
                </mxCell>
                <mxCell id="vfNR-cBWzIuKzGbf1niG-105" value="" style="edgeStyle=orthogonalEdgeStyle;html=1;verticalAlign=bottom;endArrow=open;endSize=8;strokeColor=#ff0000;rounded=0;" parent="1" source="vfNR-cBWzIuKzGbf1niG-104" target="vfNR-cBWzIuKzGbf1niG-103" edge="1">
                    <mxGeometry relative="1" as="geometry">
                        <mxPoint x="485" y="270" as="targetPoint"/>
                    </mxGeometry>
                </mxCell>
                <mxCell id="vfNR-cBWzIuKzGbf1niG-113" value="" style="ellipse;html=1;shape=endState;fillColor=#000000;strokeColor=#ff0000;fontFamily=Helvetica;fontSize=11;fontColor=default;labelBackgroundColor=default;" parent="1" vertex="1">
                    <mxGeometry x="345" y="540" width="30" height="30" as="geometry"/>
                </mxCell>
                <mxCell id="vfNR-cBWzIuKzGbf1niG-118" style="edgeStyle=orthogonalEdgeStyle;shape=connector;rounded=1;html=1;strokeColor=default;align=center;verticalAlign=middle;fontFamily=Helvetica;fontSize=11;fontColor=default;labelBackgroundColor=default;endArrow=classic;" parent="1" source="vfNR-cBWzIuKzGbf1niG-116" target="vfNR-cBWzIuKzGbf1niG-117" edge="1">
                    <mxGeometry relative="1" as="geometry"/>
                </mxCell>
                <mxCell id="vfNR-cBWzIuKzGbf1niG-116" value="Get all assets assigned to the product" style="rounded=0;whiteSpace=wrap;html=1;fontFamily=Helvetica;fontSize=11;fontColor=default;labelBackgroundColor=default;" parent="1" vertex="1">
                    <mxGeometry x="300" y="260" width="120" height="60" as="geometry"/>
                </mxCell>
                <mxCell id="vfNR-cBWzIuKzGbf1niG-120" style="edgeStyle=orthogonalEdgeStyle;shape=connector;rounded=1;html=1;strokeColor=default;align=center;verticalAlign=middle;fontFamily=Helvetica;fontSize=11;fontColor=default;labelBackgroundColor=default;endArrow=classic;" parent="1" source="vfNR-cBWzIuKzGbf1niG-117" target="vfNR-cBWzIuKzGbf1niG-113" edge="1">
                    <mxGeometry relative="1" as="geometry"/>
                </mxCell>
                <mxCell id="vfNR-cBWzIuKzGbf1niG-117" value="Return list of assets to user" style="rounded=0;whiteSpace=wrap;html=1;fontFamily=Helvetica;fontSize=11;fontColor=default;labelBackgroundColor=default;" parent="1" vertex="1">
                    <mxGeometry x="300" y="380" width="120" height="60" as="geometry"/>
                </mxCell>
                <mxCell id="vfNR-cBWzIuKzGbf1niG-129" style="edgeStyle=orthogonalEdgeStyle;shape=connector;rounded=1;html=1;strokeColor=default;align=center;verticalAlign=middle;fontFamily=Helvetica;fontSize=11;fontColor=default;labelBackgroundColor=default;endArrow=classic;" parent="1" source="vfNR-cBWzIuKzGbf1niG-121" target="vfNR-cBWzIuKzGbf1niG-126" edge="1">
                    <mxGeometry relative="1" as="geometry"/>
                </mxCell>
                <mxCell id="vfNR-cBWzIuKzGbf1niG-121" value="Request images with tags" style="rounded=0;whiteSpace=wrap;html=1;" parent="1" vertex="1">
                    <mxGeometry x="3330" y="160" width="120" height="60" as="geometry"/>
                </mxCell>
                <mxCell id="vfNR-cBWzIuKzGbf1niG-122" value="" style="ellipse;html=1;shape=startState;fillColor=#000000;strokeColor=#ff0000;" parent="1" vertex="1">
                    <mxGeometry x="3375" y="70" width="30" height="30" as="geometry"/>
                </mxCell>
                <mxCell id="vfNR-cBWzIuKzGbf1niG-123" value="" style="edgeStyle=orthogonalEdgeStyle;html=1;verticalAlign=bottom;endArrow=open;endSize=8;strokeColor=#ff0000;rounded=0;" parent="1" source="vfNR-cBWzIuKzGbf1niG-122" target="vfNR-cBWzIuKzGbf1niG-121" edge="1">
                    <mxGeometry relative="1" as="geometry">
                        <mxPoint x="3515" y="300" as="targetPoint"/>
                    </mxGeometry>
                </mxCell>
                <mxCell id="vfNR-cBWzIuKzGbf1niG-124" value="" style="ellipse;html=1;shape=endState;fillColor=#000000;strokeColor=#ff0000;fontFamily=Helvetica;fontSize=11;fontColor=default;labelBackgroundColor=default;" parent="1" vertex="1">
                    <mxGeometry x="3375" y="600" width="30" height="30" as="geometry"/>
                </mxCell>
                <mxCell id="vfNR-cBWzIuKzGbf1niG-125" style="edgeStyle=orthogonalEdgeStyle;shape=connector;rounded=1;html=1;strokeColor=default;align=center;verticalAlign=middle;fontFamily=Helvetica;fontSize=11;fontColor=default;labelBackgroundColor=default;endArrow=classic;" parent="1" source="vfNR-cBWzIuKzGbf1niG-126" target="vfNR-cBWzIuKzGbf1niG-128" edge="1">
                    <mxGeometry relative="1" as="geometry"/>
                </mxCell>
                <mxCell id="vfNR-cBWzIuKzGbf1niG-126" value="Get all assets with the searched tag(s)" style="rounded=0;whiteSpace=wrap;html=1;fontFamily=Helvetica;fontSize=11;fontColor=default;labelBackgroundColor=default;" parent="1" vertex="1">
                    <mxGeometry x="3330" y="300" width="120" height="60" as="geometry"/>
                </mxCell>
                <mxCell id="vfNR-cBWzIuKzGbf1niG-127" style="edgeStyle=orthogonalEdgeStyle;shape=connector;rounded=1;html=1;strokeColor=default;align=center;verticalAlign=middle;fontFamily=Helvetica;fontSize=11;fontColor=default;labelBackgroundColor=default;endArrow=classic;" parent="1" source="vfNR-cBWzIuKzGbf1niG-128" target="vfNR-cBWzIuKzGbf1niG-124" edge="1">
                    <mxGeometry relative="1" as="geometry"/>
                </mxCell>
                <mxCell id="vfNR-cBWzIuKzGbf1niG-128" value="Return list of assets to user" style="rounded=0;whiteSpace=wrap;html=1;fontFamily=Helvetica;fontSize=11;fontColor=default;labelBackgroundColor=default;" parent="1" vertex="1">
                    <mxGeometry x="3330" y="440" width="120" height="60" as="geometry"/>
                </mxCell>
                <mxCell id="vfNR-cBWzIuKzGbf1niG-142" style="edgeStyle=orthogonalEdgeStyle;shape=connector;rounded=1;html=1;strokeColor=default;align=center;verticalAlign=middle;fontFamily=Helvetica;fontSize=11;fontColor=default;labelBackgroundColor=default;endArrow=classic;" parent="1" source="vfNR-cBWzIuKzGbf1niG-134" target="vfNR-cBWzIuKzGbf1niG-141" edge="1">
                    <mxGeometry relative="1" as="geometry"/>
                </mxCell>
                <mxCell id="vfNR-cBWzIuKzGbf1niG-134" value="Parse tags from image data" style="rounded=0;whiteSpace=wrap;html=1;" parent="1" vertex="1">
                    <mxGeometry x="-20" y="660" width="120" height="60" as="geometry"/>
                </mxCell>
                <mxCell id="vfNR-cBWzIuKzGbf1niG-143" value="YES" style="edgeStyle=orthogonalEdgeStyle;shape=connector;rounded=1;html=1;strokeColor=default;align=center;verticalAlign=middle;fontFamily=Helvetica;fontSize=11;fontColor=default;labelBackgroundColor=default;endArrow=classic;" parent="1" source="vfNR-cBWzIuKzGbf1niG-141" target="3cYTme-PiB04GSGghVVn-21" edge="1">
                    <mxGeometry x="-0.2" y="-10" relative="1" as="geometry">
                        <mxPoint as="offset"/>
                    </mxGeometry>
                </mxCell>
                <mxCell id="vfNR-cBWzIuKzGbf1niG-145" value="NO" style="edgeStyle=orthogonalEdgeStyle;shape=connector;rounded=1;html=1;strokeColor=default;align=center;verticalAlign=middle;fontFamily=Helvetica;fontSize=11;fontColor=default;labelBackgroundColor=default;endArrow=classic;" parent="1" source="vfNR-cBWzIuKzGbf1niG-141" target="3cYTme-PiB04GSGghVVn-34" edge="1">
                    <mxGeometry x="-0.0182" y="-15" relative="1" as="geometry">
                        <Array as="points">
                            <mxPoint x="40" y="925"/>
                        </Array>
                        <mxPoint as="offset"/>
                    </mxGeometry>
                </mxCell>
                <mxCell id="vfNR-cBWzIuKzGbf1niG-141" value="Parsed any tags?" style="rhombus;whiteSpace=wrap;html=1;" parent="1" vertex="1">
                    <mxGeometry x="-40" y="770" width="160" height="80" as="geometry"/>
                </mxCell>
                <mxCell id="22" value="" style="shape=line;html=1;strokeWidth=6;strokeColor=#000000;" vertex="1" parent="1">
                    <mxGeometry x="-125" y="590" width="80" height="10" as="geometry"/>
                </mxCell>
                <mxCell id="24" style="edgeStyle=none;html=1;entryX=0.505;entryY=0.454;entryDx=0;entryDy=0;entryPerimeter=0;" edge="1" parent="1" source="15" target="22">
                    <mxGeometry relative="1" as="geometry">
                        <mxPoint x="-84" y="590" as="targetPoint"/>
                    </mxGeometry>
                </mxCell>
                <mxCell id="25" style="edgeStyle=orthogonalEdgeStyle;html=1;exitX=0.25;exitY=0.5;exitDx=0;exitDy=0;exitPerimeter=0;entryX=0.5;entryY=0;entryDx=0;entryDy=0;rounded=0;" edge="1" parent="1" source="22" target="3cYTme-PiB04GSGghVVn-21">
                    <mxGeometry relative="1" as="geometry">
                        <mxPoint x="-115" y="622" as="sourcePoint"/>
                        <mxPoint x="-114" y="675" as="targetPoint"/>
                    </mxGeometry>
                </mxCell>
                <mxCell id="26" style="edgeStyle=orthogonalEdgeStyle;html=1;exitX=0.75;exitY=0.5;exitDx=0;exitDy=0;exitPerimeter=0;entryX=0;entryY=0.5;entryDx=0;entryDy=0;rounded=0;curved=0;" edge="1" parent="1" source="22" target="vfNR-cBWzIuKzGbf1niG-134">
                    <mxGeometry relative="1" as="geometry">
                        <mxPoint x="-70" y="622" as="sourcePoint"/>
                        <mxPoint x="-69" y="675" as="targetPoint"/>
                        <Array as="points">
                            <mxPoint x="-60" y="595"/>
                            <mxPoint x="-60" y="690"/>
                        </Array>
                    </mxGeometry>
                </mxCell>
            </root>
        </mxGraphModel>
    </diagram>
</mxfile>